<svg width="182" height="19" viewBox="0 0 182 19" fill="none" xmlns="http://www.w3.org/2000/svg">
<path d="M16.7501 3.1377L13.7363 6.73102C13.185 5.99397 12.5321 5.41173 11.7777 4.98429C11.0253 4.55685 10.2806 4.34313 9.54357 4.34313C8.95673 4.34313 8.40827 4.46044 7.8982 4.69508C7.38813 4.92971 6.9399 5.25666 6.55352 5.67594C6.16969 6.09318 5.87221 6.58667 5.66104 7.15642C5.45242 7.72541 5.34809 8.34476 5.34809 9.01449C5.34809 9.68421 5.45242 10.3088 5.66104 10.8882C5.87221 11.4651 6.16969 11.9624 6.55352 12.3802C6.9399 12.7997 7.38813 13.1267 7.8982 13.3611C8.40827 13.5957 8.95685 13.713 9.54394 13.713C10.2292 13.713 10.9531 13.5249 11.7157 13.1487C12.4783 12.77 13.1518 12.2714 13.7363 11.653L16.7501 14.8679C16.1138 15.5532 15.386 16.156 14.5669 16.6763C13.7451 17.194 12.8822 17.5918 11.9781 17.8698C11.074 18.1458 10.1789 18.2838 9.29261 18.2838C7.93531 18.2838 6.69647 18.0532 5.5761 17.5921C4.45292 17.131 3.47283 16.4909 2.6358 15.6717C1.79852 14.85 1.14944 13.875 0.688592 12.7467C0.229527 11.6159 0 10.3885 0 9.0646C0 7.75882 0.234643 6.5585 0.703909 5.46363C1.17266 4.36621 1.83702 3.40663 2.697 2.58491C3.56029 1.76573 4.56502 1.12942 5.71115 0.675971C6.86008 0.225323 8.11193 0 9.46668 0C10.371 0 11.2675 0.130064 12.156 0.3902C13.042 0.647786 13.883 1.01121 14.679 1.48048C15.4747 1.94898 16.1651 2.50139 16.7501 3.1377ZM18.33 17.9356V0.32899H23.5542V13.5661H30.9375V17.936L18.33 17.9356ZM32.75 17.9356V0.32899H37.9738V17.936L32.75 17.9356ZM56.6822 3.1377L53.6684 6.73102C53.1173 5.99397 52.4644 5.41173 51.7097 4.98429C50.9574 4.55685 50.213 4.34313 49.4764 4.34313C48.8891 4.34313 48.3403 4.46044 47.8303 4.69508C47.3202 4.92971 46.8721 5.25666 46.486 5.67594C46.1022 6.09318 45.8045 6.58667 45.5931 7.15642C45.3845 7.72541 45.2802 8.34476 45.2802 9.01449C45.2802 9.68421 45.3845 10.3088 45.5931 10.8882C45.8045 11.4651 46.1022 11.9624 46.486 12.3802C46.8724 12.7997 47.3205 13.1267 47.8303 13.3611C48.3403 13.5957 48.8891 13.713 49.4764 13.713C50.1617 13.713 50.8855 13.5249 51.6478 13.1487C52.4103 12.77 53.0839 12.2714 53.6684 11.653L56.6822 14.8679C56.0461 15.5532 55.3185 16.156 54.4993 16.6763C53.6776 17.194 52.8147 17.5918 51.9106 17.8698C51.0065 18.1458 50.1113 18.2838 49.2251 18.2838C47.8678 18.2838 46.6288 18.0532 45.5082 17.5921C44.3853 17.131 43.4052 16.4909 42.5679 15.6717C41.7309 14.85 41.0818 13.875 40.6207 12.7467C40.1621 11.6159 39.9328 10.3885 39.9328 9.0646C39.9328 7.75882 40.1672 6.5585 40.636 5.46363C41.1047 4.36621 41.7694 3.40663 42.6298 2.58491C43.4926 1.76573 44.4972 1.12942 45.6436 0.675971C46.7923 0.225323 48.0441 0 49.3991 0C50.3032 0 51.1997 0.130064 52.0885 0.3902C52.9745 0.647786 53.8155 1.01121 54.6114 1.48048C55.4071 1.94898 56.0974 2.50139 56.6822 3.1377ZM58.2659 17.9356V0.32899H63.4905V7.38787L69.3902 0.32899H75.4177L63.4905 13.6166V17.936L58.2659 17.9356ZM65.1711 11.0275L68.6637 6.93569L75.8198 17.9356H69.5681L65.1711 11.0275ZM77.3768 17.9356V0.32899H91.0393V4.34734H82.6002V7.863H90.436V11.8817H82.6002V17.936L77.3768 17.9356ZM101.514 0C102.902 0 104.179 0.225448 105.343 0.676351C106.507 1.12955 107.519 1.76587 108.38 2.58529C109.243 3.40676 109.912 4.37003 110.389 5.4751C110.868 6.58017 111.108 7.78572 111.108 9.09176C111.108 10.3975 110.868 11.6159 110.388 12.7467C109.912 13.875 109.243 14.85 108.38 15.6717C107.519 16.4909 106.507 17.131 105.343 17.5921C104.179 18.0532 102.902 18.2836 101.514 18.2834C100.123 18.2834 98.8454 18.0529 97.6812 17.5921C96.5192 17.131 95.5068 16.4909 94.6437 15.6717C93.781 14.85 93.1114 13.8788 92.635 12.7582C92.158 11.6352 91.9196 10.4131 91.9196 9.09176C91.9196 7.76762 92.158 6.55301 92.635 5.44794C93.1119 4.34287 93.7816 3.3847 94.6441 2.57343C95.5066 1.76216 96.519 1.12968 97.6812 0.675971C98.8454 0.225323 100.123 0 101.514 0ZM101.587 4.34313C101.003 4.34313 100.446 4.46044 99.918 4.69508C99.3898 4.92971 98.9288 5.26444 98.5351 5.69928C98.1433 6.13463 97.8342 6.64214 97.6077 7.22184C97.3808 7.79873 97.2673 8.42969 97.2673 9.11471C97.2673 9.80255 97.3846 10.4389 97.6192 11.0237C97.8536 11.6108 98.1678 12.1221 98.5618 12.5577C98.9561 12.9928 99.4121 13.3315 99.9299 13.5738C100.45 13.816 101.003 13.9372 101.587 13.9372C102.157 13.9372 102.692 13.816 103.194 13.5738C103.697 13.3315 104.141 12.9927 104.528 12.5573C104.912 12.122 105.213 11.6106 105.432 11.0233C105.648 10.4387 105.757 9.80255 105.757 9.11471C105.757 8.42969 105.648 7.79861 105.431 7.22146C105.213 6.64202 104.912 6.1345 104.528 5.69889C104.141 5.2638 103.697 4.92907 103.195 4.69469C102.692 4.46006 102.156 4.34274 101.587 4.34274M113.067 0.328611H121.277C123.655 0.328611 125.489 0.873368 126.779 1.96288C128.067 3.04984 128.711 4.58133 128.711 6.55735C128.711 8.66675 128.067 10.3036 126.779 11.4678C125.489 12.632 123.655 13.2142 121.277 13.2142H118.291V17.9356H113.067V0.328611ZM118.291 9.16942H121.277C122.065 9.16942 122.672 8.96055 123.097 8.5428C123.525 8.12301 123.738 7.51131 123.738 6.70769C123.738 5.95534 123.525 5.37449 123.097 4.96516C122.672 4.55302 122.065 4.34695 121.277 4.34695H118.291V9.16942ZM123.387 17.9356L120.122 11.306H125.195L129.314 17.9356H123.387ZM142.52 0.324788V12.1055C142.52 14.0295 141.943 15.5196 140.789 16.5757C139.633 17.6292 138.076 18.156 136.118 18.156C134.779 18.156 133.568 17.8971 132.486 17.3794C131.407 16.8591 130.448 16.1392 129.611 15.2195L131.999 11.7769C132.669 12.4466 133.333 12.9452 133.992 13.2727C134.655 13.5996 135.22 13.7631 135.689 13.7631C136.158 13.7631 136.535 13.6124 136.821 13.3109C137.104 13.0095 137.246 12.5651 137.246 11.9777V4.49385H131.269V0.325167L142.52 0.324788ZM153.775 0C155.166 0 156.443 0.225448 157.604 0.676351C158.769 1.12955 159.783 1.76587 160.645 2.58529C161.508 3.40676 162.178 4.37003 162.654 5.4751C163.131 6.58017 163.369 7.78572 163.369 9.09176C163.369 10.3975 163.131 11.6159 162.654 12.7467C162.178 13.875 161.508 14.85 160.645 15.6717C159.783 16.4909 158.769 17.131 157.604 17.5921C156.443 18.0529 155.166 18.2834 153.775 18.2834C152.387 18.2834 151.111 18.0529 149.946 17.5921C148.782 17.131 147.769 16.4909 146.906 15.6717C146.045 14.85 145.376 13.8788 144.897 12.7582C144.42 11.6352 144.181 10.4131 144.181 9.09176C144.181 7.76762 144.42 6.55301 144.897 5.44794C145.376 4.34287 146.045 3.3847 146.906 2.57343C147.769 1.76191 148.782 1.12942 149.946 0.675971C151.111 0.225323 152.387 0 153.776 0M153.852 4.34313C153.265 4.34313 152.708 4.46044 152.18 4.69508C151.654 4.9292 151.195 5.26393 150.8 5.69928C150.406 6.13463 150.096 6.64214 149.869 7.22184C149.645 7.79873 149.533 8.42969 149.533 9.11471C149.533 9.80255 149.65 10.4389 149.885 11.0237C150.119 11.6108 150.432 12.1221 150.824 12.5577C151.218 12.9928 151.675 13.3315 152.195 13.5738C152.713 13.816 153.265 13.9372 153.853 13.9372C154.422 13.9372 154.958 13.816 155.46 13.5738C155.963 13.3315 156.406 12.9927 156.789 12.5573C157.176 12.122 157.477 11.6106 157.694 11.0233C157.912 10.4387 158.022 9.80255 158.022 9.11471C158.022 8.42969 157.912 7.79861 157.694 7.22146C157.477 6.64202 157.175 6.1345 156.789 5.69889C156.405 5.2638 155.962 4.92907 155.46 4.69469C154.958 4.46006 154.422 4.34274 153.853 4.34274M165.328 0.328611H173.968C175.359 0.328611 176.556 0.512747 177.561 0.881018C178.566 1.24929 179.343 1.76446 179.895 2.42653C180.449 3.0886 180.726 3.87156 180.726 4.77541C180.726 5.66166 180.458 6.4487 179.922 7.13653C179.386 7.82182 178.657 8.29835 177.735 8.56614C178.824 8.80077 179.687 9.31976 180.323 10.1231C180.96 10.9265 181.278 11.8899 181.278 13.0133C181.278 14.0182 180.993 14.8888 180.424 15.6254C179.855 16.3619 179.055 16.9312 178.025 17.3331C176.994 17.735 175.768 17.9359 174.346 17.9356H165.328V0.328611ZM170.529 7.23753H173.693C174.196 7.23753 174.601 7.09955 174.91 6.8236C175.219 6.54561 175.374 6.17199 175.374 5.70272C175.374 5.23422 175.219 4.875 174.91 4.62507C174.601 4.37258 174.196 4.24634 173.693 4.24634H170.529V7.23753ZM170.529 14.0179H173.693C174.345 14.0332 174.872 13.8904 175.273 13.5894C175.675 13.2877 175.876 12.878 175.876 12.3603C175.876 11.8915 175.675 11.5141 175.274 11.2279C174.872 10.9449 174.345 10.811 173.693 10.8263H170.529V14.0179Z" fill="#1B00BF"/>
</svg>
