<svg width="319" height="60" viewBox="0 0 319 60" fill="none" xmlns="http://www.w3.org/2000/svg">
<path d="M50.6989 22.0967L46.255 26.7883C45.4419 25.826 44.4792 25.0658 43.3668 24.5077C42.2574 23.9496 41.1593 23.6706 40.0725 23.6706C39.2072 23.6706 38.3984 23.8237 37.6463 24.1301C36.8942 24.4364 36.2332 24.8633 35.6635 25.4108C35.0975 25.9555 34.6589 26.5998 34.3475 27.3437C34.0399 28.0866 33.886 28.8953 33.886 29.7697C33.886 30.6441 34.0399 31.4596 34.3475 32.2161C34.6589 32.9694 35.0975 33.6187 35.6635 34.1641C36.2332 34.7119 36.8942 35.1388 37.6463 35.4448C38.3984 35.7511 39.2074 35.9043 40.073 35.9043C41.0835 35.9043 42.151 35.6587 43.2754 35.1676C44.3998 34.6731 45.393 34.0221 46.255 33.2146L50.6989 37.4122C49.7607 38.3069 48.6875 39.094 47.4796 39.7732C46.2679 40.4492 44.9956 40.9687 43.6624 41.3316C42.3293 41.6919 41.0093 41.872 39.7024 41.872C37.701 41.872 35.8743 41.571 34.2222 40.969C32.5661 40.367 31.1209 39.5312 29.8866 38.4616C28.652 37.3887 27.6949 36.1157 27.0154 34.6426C26.3385 33.1661 26 31.5637 26 29.8351C26 28.1302 26.346 26.5631 27.038 25.1335C27.7292 23.7007 28.7088 22.4478 29.9769 21.375C31.2498 20.3054 32.7314 19.4746 34.4214 18.8826C36.1156 18.2942 37.9615 18 39.9591 18C41.2926 18 42.6145 18.1698 43.9247 18.5095C45.2311 18.8458 46.4712 19.3203 47.6449 19.933C48.8182 20.5447 49.8362 21.2659 50.6989 22.0967ZM53.0286 41.4175V18.4295H60.7319V35.7125H71.619V41.418L53.0286 41.4175ZM74.2916 41.4175V18.4295H81.9943V41.418L74.2916 41.4175ZM109.581 22.0967L105.137 26.7883C104.324 25.826 103.362 25.0658 102.249 24.5077C101.139 23.9496 100.042 23.6706 98.9556 23.6706C98.0895 23.6706 97.2804 23.8237 96.5283 24.1301C95.7761 24.4364 95.1154 24.8633 94.5461 25.4108C93.9801 25.9555 93.5412 26.5998 93.2295 27.3437C92.9218 28.0866 92.768 28.8953 92.768 29.7697C92.768 30.6441 92.9218 31.4596 93.2295 32.2161C93.5412 32.9694 93.9801 33.6187 94.5461 34.1641C95.1158 34.7119 95.7765 35.1388 96.5283 35.4448C97.2804 35.7511 98.0895 35.9043 98.9556 35.9043C99.9661 35.9043 101.033 35.6587 102.157 35.1676C103.282 34.6731 104.275 34.0221 105.137 33.2146L109.581 37.4122C108.643 38.3069 107.57 39.094 106.362 39.7732C105.15 40.4492 103.878 40.9687 102.545 41.3316C101.212 41.6919 99.8918 41.872 98.585 41.872C96.5835 41.872 94.7566 41.571 93.1042 40.969C91.4484 40.367 90.0032 39.5312 88.7686 38.4616C87.5343 37.3887 86.5772 36.1157 85.8973 34.6426C85.2212 33.1661 84.8831 31.5637 84.8831 29.8351C84.8831 28.1302 85.2287 26.5631 85.9199 25.1335C86.6111 23.7007 87.5911 22.4478 88.86 21.375C90.1322 20.3054 91.6135 19.4746 93.3039 18.8826C94.9977 18.2942 96.8436 18 98.8416 18C100.175 18 101.497 18.1698 102.807 18.5095C104.114 18.8458 105.354 19.3203 106.527 19.933C107.701 20.5447 108.719 21.2659 109.581 22.0967ZM111.916 41.4175V18.4295H119.62V27.6459L128.32 18.4295H137.207L119.62 35.7784V41.418L111.916 41.4175ZM122.098 32.3979L127.248 27.0555L137.8 41.4175H128.582L122.098 32.3979ZM140.096 41.4175V18.4295H160.242V23.6761H147.798V28.2663H159.353V33.5133H147.798V41.418L140.096 41.4175ZM175.687 18C177.735 18 179.617 18.2944 181.334 18.8831C183.051 19.4748 184.543 20.3056 185.812 21.3755C187.084 22.448 188.072 23.7057 188.774 25.1485C189.481 26.5914 189.834 28.1654 189.834 29.8706C189.834 31.5755 189.481 33.1661 188.774 34.6426C188.072 36.1157 187.084 37.3887 185.812 38.4616C184.543 39.5312 183.051 40.367 181.334 40.969C179.617 41.571 177.735 41.8719 175.687 41.8716C173.637 41.8716 171.753 41.5707 170.036 40.969C168.323 40.367 166.83 39.5312 165.557 38.4616C164.285 37.3887 163.298 36.1207 162.595 34.6576C161.892 33.1915 161.54 31.5958 161.54 29.8706C161.54 28.1417 161.892 26.5559 162.595 25.1131C163.298 23.6702 164.286 22.4192 165.558 21.36C166.83 20.3008 168.322 19.475 170.036 18.8826C171.753 18.2942 173.636 18 175.687 18ZM175.796 23.6706C174.934 23.6706 174.113 23.8237 173.334 24.1301C172.556 24.4364 171.876 24.8735 171.295 25.4412C170.718 26.0096 170.262 26.6723 169.928 27.4291C169.593 28.1824 169.426 29.0062 169.426 29.9006C169.426 30.7986 169.599 31.6294 169.945 32.393C170.29 33.1595 170.754 33.8271 171.335 34.3959C171.916 34.9639 172.588 35.4061 173.352 35.7225C174.119 36.0388 174.934 36.197 175.796 36.197C176.635 36.197 177.425 36.0388 178.165 35.7225C178.906 35.4061 179.562 34.9638 180.132 34.3954C180.698 33.827 181.142 33.1593 181.465 32.3925C181.784 31.6293 181.944 30.7986 181.944 29.9006C181.944 29.0062 181.784 28.1822 181.464 27.4286C181.142 26.6721 180.698 26.0095 180.132 25.4407C179.562 24.8726 178.907 24.4356 178.166 24.1296C177.425 23.8232 176.635 23.6701 175.796 23.6701M192.723 18.429H204.83C208.335 18.429 211.04 19.1403 212.943 20.5628C214.842 21.982 215.792 23.9816 215.792 26.5615C215.792 29.3157 214.842 31.4528 212.943 32.9728C211.04 34.4929 208.336 35.253 204.83 35.253H200.426V41.4175H192.723V18.429ZM200.426 29.972H204.83C205.992 29.972 206.886 29.6993 207.513 29.1538C208.144 28.6057 208.459 27.8071 208.459 26.7578C208.459 25.7755 208.144 25.0172 207.513 24.4827C206.886 23.9446 205.992 23.6756 204.83 23.6756H200.426V29.972ZM207.941 41.4175L203.126 32.7616H210.607L216.68 41.4175H207.941ZM236.154 18.4241V33.8055C236.154 36.3175 235.303 38.263 233.601 39.6419C231.896 41.0174 229.6 41.7052 226.714 41.7052C224.738 41.7052 222.953 41.3672 221.357 40.6913C219.766 40.012 218.353 39.072 217.119 37.8712L220.64 33.3764C221.627 34.2508 222.607 34.9018 223.579 35.3294C224.556 35.7563 225.389 35.9697 226.081 35.9697C226.772 35.9697 227.328 35.7729 227.75 35.3793C228.168 34.9857 228.377 34.4055 228.377 33.6387V23.8674H219.563V18.4246L236.154 18.4241ZM252.749 18C254.801 18 256.683 18.2944 258.396 18.8831C260.113 19.4748 261.608 20.3056 262.88 21.3755C264.153 22.448 265.14 23.7057 265.843 25.1485C266.545 26.5914 266.897 28.1654 266.897 29.8706C266.897 31.5755 266.545 33.1661 265.842 34.6426C265.14 36.1157 264.153 37.3887 262.88 38.4616C261.608 39.5312 260.113 40.367 258.395 40.969C256.683 41.5707 254.801 41.8716 252.75 41.8716C250.703 41.8716 248.821 41.5707 247.103 40.969C245.387 40.367 243.893 39.5312 242.621 38.4616C241.352 37.3887 240.364 36.1207 239.658 34.6576C238.955 33.1915 238.603 31.5958 238.603 29.8706C238.603 28.1417 238.955 26.5559 239.658 25.1131C240.364 23.6702 241.352 22.4192 242.621 21.36C243.893 20.3004 245.387 19.4746 247.104 18.8826C248.821 18.2942 250.703 18 252.751 18M252.863 23.6706C251.998 23.6706 251.176 23.8237 250.397 24.1301C249.622 24.4358 248.944 24.8728 248.363 25.4412C247.782 26.0096 247.324 26.6723 246.99 27.4291C246.66 28.1824 246.495 29.0062 246.495 29.9006C246.495 30.7986 246.668 31.6294 247.013 32.393C247.359 33.1595 247.82 33.8271 248.397 34.3959C248.978 34.9639 249.652 35.4061 250.42 35.7225C251.183 36.0388 251.998 36.197 252.864 36.197C253.703 36.197 254.493 36.0388 255.234 35.7225C255.975 35.4061 256.628 34.9638 257.194 34.3954C257.764 33.827 258.208 33.1593 258.527 32.3925C258.85 31.6293 259.011 30.7986 259.011 29.9006C259.011 29.0062 258.85 28.1822 258.527 27.4286C258.208 26.6721 257.763 26.0095 257.194 25.4407C256.628 24.8726 255.975 24.4356 255.234 24.1296C254.493 23.8232 253.703 23.6701 252.864 23.6701M269.785 18.429H282.525C284.576 18.429 286.342 18.6695 287.823 19.1503C289.304 19.6311 290.451 20.3038 291.264 21.1682C292.081 22.0326 292.489 23.0549 292.489 24.235C292.489 25.3921 292.094 26.4197 291.304 27.3178C290.514 28.2125 289.439 28.8347 288.079 29.1843C289.686 29.4907 290.959 30.1683 291.897 31.2172C292.834 32.2661 293.304 33.5239 293.304 34.9907C293.304 36.3027 292.884 37.4395 292.045 38.4012C291.205 39.3628 290.026 40.1061 288.507 40.6308C286.988 41.1556 285.18 41.4179 283.083 41.4175H269.785V18.429ZM277.454 27.4496H282.12C282.861 27.4496 283.459 27.2695 283.914 26.9092C284.37 26.5462 284.598 26.0584 284.598 25.4457C284.598 24.834 284.37 24.365 283.915 24.0387C283.459 23.709 282.861 23.5442 282.12 23.5442H277.454V27.4496ZM277.454 36.3024H282.12C283.081 36.3223 283.858 36.1359 284.45 35.743C285.043 35.349 285.339 34.8141 285.339 34.1381C285.339 33.5261 285.043 33.0333 284.45 32.6597C283.858 32.2901 283.081 32.1152 282.12 32.1352H277.454V36.3024Z" fill="#E2FFAC"/>
</svg>
